<?xml version="1.0" encoding="utf-8"?>
<!-- Generator: Adobe Illustrator 16.0.0, SVG Export Plug-In . SVG Version: 6.00 Build 0)  -->
<!DOCTYPE svg PUBLIC "-//W3C//DTD SVG 1.1//EN" "http://www.w3.org/Graphics/SVG/1.1/DTD/svg11.dtd">
<svg version="1.1" id="Layer_1" xmlns="http://www.w3.org/2000/svg" xmlns:xlink="http://www.w3.org/1999/xlink" x="0px" y="0px"
	 width="298.815px" height="213px" viewBox="310.5 243.422 298.815 213" enable-background="new 310.5 243.422 298.815 213"
	 xml:space="preserve">
<g>
	<path fill="none" stroke="#000000" stroke-width="8" stroke-linecap="round" stroke-miterlimit="10" d="M415.03,302.775
		c0-19.754,16.013-35.767,35.768-35.767c19.754,0,35.77,16.013,35.77,35.767c0,19.754-16.017,35.768-35.77,35.768"/>
	<path fill="none" stroke="#000000" stroke-width="8" stroke-linecap="round" stroke-miterlimit="10" d="M500.928,299.61
		c0-28.822,23.366-52.188,52.191-52.188c28.826,0,52.196,23.367,52.196,52.188s-23.371,52.188-52.196,52.188"/>
	<path fill="none" stroke="#000000" stroke-width="8" stroke-linecap="round" stroke-miterlimit="10" d="M563.622,456.422"/>
	<path fill="none" stroke="#000000" stroke-width="8" stroke-linecap="round" stroke-miterlimit="10" d="M460.228,404.928
		c0,22.477,18.225,40.701,40.7,40.701s40.7-18.225,40.7-40.701c0-22.475-18.225-40.7-40.7-40.7"/>
	
		<line fill="none" stroke="#000000" stroke-width="8" stroke-linecap="round" stroke-miterlimit="10" x1="449.5" y1="338.542" x2="328.75" y2="338.542"/>
	
		<line fill="none" stroke="#000000" stroke-width="8" stroke-linecap="round" stroke-miterlimit="10" x1="553.119" y1="351.799" x2="314.5" y2="351.799"/>
	
		<line fill="none" stroke="#000000" stroke-width="8" stroke-linecap="round" stroke-miterlimit="10" x1="500.928" y1="364.229" x2="357.5" y2="364.229"/>
</g>
</svg>
