<?xml version="1.0" encoding="utf-8"?>
<!-- Generator: Adobe Illustrator 19.0.0, SVG Export Plug-In . SVG Version: 6.00 Build 0)  -->
<svg version="1.1" id="Layer_1" xmlns="http://www.w3.org/2000/svg" xmlns:xlink="http://www.w3.org/1999/xlink" x="0px" y="0px"
	 viewBox="54.1 691.5 85.6 63" style="enable-background:new 54.1 691.5 85.6 63;" xml:space="preserve" shape-rendering="geometricPrecision">
<style type="text/css">
	.st0{fill:none;stroke:#000000;stroke-width:3;stroke-linecap:round;stroke-miterlimit:10;}
</style>
<g>
	<g>
		<path class="st0" d="M97.4,741.1c0,6.5,5.3,11.9,11.9,11.9c6.5,0,11.9-5.3,11.9-11.9c0-6.5-5.3-11.9-11.9-11.9"/>
		<line class="st0" x1="109.2" y1="729.2" x2="67.4" y2="729.2"/>
	</g>
	<g>
		<path class="st0" d="M108.5,707.8c0-8.2,6.6-14.8,14.8-14.8c8.2,0,14.8,6.6,14.8,14.8s-6.6,14.8-14.8,14.8"/>
		<line class="st0" x1="123.4" y1="722.6" x2="55.6" y2="722.6"/>
	</g>
	<g>
		<path class="st0" d="M83.7,707.4c0-5.6,4.5-10.1,10.1-10.1c5.6,0,10.1,4.5,10.1,10.1s-4.5,10.1-10.1,10.1"/>
		<line class="st0" x1="93.5" y1="717.6" x2="59.2" y2="717.6"/>
	</g>
</g>
</svg>
