<?xml version="1.0" encoding="utf-8"?>
<!-- Generator: Adobe Illustrator 16.0.0, SVG Export Plug-In . SVG Version: 6.00 Build 0)  -->
<!DOCTYPE svg PUBLIC "-//W3C//DTD SVG 1.1//EN" "http://www.w3.org/Graphics/SVG/1.1/DTD/svg11.dtd">
<svg version="1.1" id="Layer_1" xmlns="http://www.w3.org/2000/svg" xmlns:xlink="http://www.w3.org/1999/xlink" x="0px" y="0px"
	 width="674.578px" height="455.043px" viewBox="151.062 153.176 674.578 455.043"
	 enable-background="new 151.062 153.176 674.578 455.043" xml:space="preserve">
<g>
	<g>
		<g>
			<path d="M273.379,430.44c-8.28,0-15,6.72-15,15c0,8.279,6.72,15,15,15h300.003v-30H273.379z"/>
		</g>
	</g>
	<g>
		<g>
			<path d="M166.062,369c-8.28,0-15,6.72-15,15s6.72,15,15,15h539.996v-30H166.062z"/>
		</g>
	</g>
	<g>
		<g>
			<path d="M210.221,315.24c-8.28,0-15,6.72-15,15c0,8.28,6.719,15,15,15H450.22v-30H210.221z"/>
		</g>
	</g>
	<path fill="none" stroke="#000000" stroke-width="30" stroke-linecap="round" stroke-miterlimit="10" d="M375.544,256.512
		c0-40.719,33.009-73.728,73.729-73.728c40.72,0,73.734,33.008,73.734,73.728c0,40.72-33.016,73.729-73.734,73.729"/>
	<path fill="none" stroke="#000000" stroke-width="30" stroke-linecap="round" stroke-miterlimit="10" d="M594.793,276.088
		c0-59.597,48.314-107.912,107.919-107.912c59.605,0,107.928,48.316,107.928,107.912C810.64,335.684,762.316,384,702.712,384"/>
	<path fill="none" stroke="#000000" stroke-width="4" stroke-linecap="round" stroke-miterlimit="10" d="M564.473,453.12"/>
	<path fill="none" stroke="#000000" stroke-width="30" stroke-linecap="round" stroke-miterlimit="10" d="M498.271,519.329
		c0,40.804,33.086,73.89,73.89,73.89s73.889-33.086,73.889-73.89s-33.085-73.889-73.889-73.889"/>
</g>
</svg>
